<?xml version="1.0" standalone="no"?>
<!DOCTYPE svg PUBLIC "-//W3C//DTD SVG 20010904//EN"
 "http://www.w3.org/TR/2001/REC-SVG-20010904/DTD/svg10.dtd">
<svg version="1.0" xmlns="http://www.w3.org/2000/svg"
 width="2048.000000pt" height="2048.000000pt" viewBox="0 0 2048.000000 2048.000000"
 preserveAspectRatio="xMidYMid meet">

<g transform="translate(0.000000,2048.000000) scale(0.100000,-0.100000)"
fill="#000000" stroke="none">
<path d="M10230 19668 c-74 -3 -196 -9 -270 -12 -74 -3 -173 -11 -220 -16 -47
-6 -137 -18 -200 -26 -63 -8 -149 -19 -191 -23 -42 -5 -91 -12 -110 -16 -19
-5 -45 -9 -59 -10 -30 -3 -66 -9 -235 -42 -71 -14 -152 -30 -180 -35 -27 -5
-54 -10 -60 -12 -5 -1 -37 -8 -70 -15 -33 -7 -72 -17 -86 -22 -22 -9 -61 -18
-239 -58 -19 -4 -44 -12 -55 -18 -11 -6 -40 -13 -65 -17 -25 -4 -63 -13 -85
-20 -44 -16 -170 -55 -255 -80 -30 -9 -64 -21 -75 -25 -11 -5 -58 -21 -105
-36 -76 -24 -135 -47 -238 -91 -18 -8 -41 -14 -52 -14 -10 0 -21 -4 -24 -9 -3
-5 -18 -12 -33 -16 -16 -3 -35 -12 -43 -19 -8 -8 -28 -16 -43 -20 -16 -4 -62
-22 -104 -41 -41 -19 -77 -35 -79 -35 -3 0 -49 -21 -102 -46 -154 -73 -296
-140 -312 -147 -8 -4 -46 -24 -85 -45 -38 -21 -108 -59 -155 -84 -202 -108
-316 -171 -330 -183 -8 -8 -42 -28 -75 -45 -33 -17 -64 -38 -68 -46 -4 -8 -17
-14 -27 -14 -11 0 -34 -13 -52 -28 -18 -16 -44 -35 -59 -43 -50 -28 -92 -54
-127 -82 -21 -16 -66 -46 -102 -67 -36 -21 -74 -47 -84 -59 -11 -12 -24 -21
-30 -21 -6 0 -28 -16 -48 -35 -20 -19 -41 -35 -47 -35 -5 0 -14 -6 -18 -14 -4
-7 -19 -19 -33 -26 -14 -7 -45 -30 -70 -50 -25 -21 -59 -44 -75 -53 -17 -8
-39 -24 -49 -36 -11 -12 -25 -21 -33 -21 -7 0 -13 -4 -13 -9 0 -6 -26 -30 -57
-55 -149 -117 -262 -215 -398 -341 -44 -41 -83 -75 -88 -75 -4 0 -73 -65 -153
-145 -80 -80 -149 -145 -153 -145 -4 0 -32 -28 -62 -62 -30 -34 -93 -103 -140
-152 -128 -135 -169 -180 -169 -188 0 -4 -15 -23 -32 -42 -18 -19 -39 -40 -45
-48 -7 -7 -17 -17 -22 -23 -30 -29 -71 -84 -71 -93 0 -6 -8 -16 -19 -21 -10
-6 -38 -38 -62 -72 -24 -33 -53 -71 -65 -83 -11 -11 -31 -38 -43 -58 -13 -21
-26 -38 -31 -38 -4 0 -22 -22 -40 -50 -18 -27 -35 -50 -39 -50 -4 0 -15 -15
-26 -32 -10 -18 -27 -39 -37 -46 -10 -7 -18 -18 -18 -23 0 -11 -59 -100 -73
-110 -5 -4 -14 -15 -20 -26 -7 -10 -21 -34 -32 -52 -11 -19 -36 -54 -55 -80
-19 -25 -44 -63 -55 -84 -11 -21 -30 -48 -42 -59 -13 -12 -23 -26 -23 -32 0
-6 -23 -45 -50 -85 -28 -41 -50 -80 -50 -86 0 -6 -15 -29 -33 -51 -17 -21 -52
-79 -77 -129 -25 -49 -54 -97 -65 -106 -11 -9 -26 -37 -33 -62 -8 -26 -21 -52
-29 -59 -8 -6 -24 -32 -35 -57 -11 -25 -24 -53 -29 -61 -5 -8 -32 -62 -59
-120 -28 -58 -56 -114 -62 -125 -43 -75 -78 -145 -78 -158 0 -8 -7 -20 -15
-27 -8 -7 -20 -31 -27 -54 -6 -22 -33 -88 -60 -146 -27 -58 -58 -132 -69 -165
-11 -33 -26 -69 -33 -80 -7 -11 -19 -38 -26 -60 -7 -22 -16 -44 -20 -50 -4 -5
-17 -39 -28 -75 -12 -36 -30 -90 -42 -120 -43 -114 -51 -136 -55 -162 -2 -15
-9 -36 -14 -47 -6 -11 -11 -29 -11 -40 0 -12 -4 -21 -10 -21 -5 0 -10 -11 -10
-25 0 -14 -9 -43 -20 -65 -11 -22 -20 -46 -20 -55 0 -8 -4 -23 -9 -33 -8 -17
-27 -82 -37 -132 -3 -14 -10 -34 -15 -45 -5 -11 -13 -38 -18 -60 -21 -87 -54
-211 -62 -230 -4 -11 -10 -36 -13 -55 -5 -38 -24 -129 -30 -145 -1 -5 -6 -17
-9 -25 -5 -15 -23 -111 -33 -178 -2 -17 -14 -71 -25 -120 -11 -48 -23 -103
-25 -122 -3 -19 -11 -67 -19 -107 -8 -39 -15 -82 -14 -95 0 -13 -11 -95 -25
-183 -13 -88 -24 -162 -23 -165 0 -3 -2 -30 -6 -60 -7 -55 -16 -167 -22 -270
-2 -30 -7 -80 -10 -110 -16 -160 -21 -887 -6 -945 5 -22 8 -50 5 -62 -4 -13 0
-94 7 -180 7 -87 11 -175 10 -197 -1 -21 3 -44 10 -52 6 -7 8 -17 5 -22 -5 -8
9 -136 34 -317 5 -38 12 -92 15 -120 7 -55 32 -215 46 -285 4 -25 17 -94 29
-155 11 -60 24 -121 30 -135 5 -14 12 -43 15 -65 7 -52 45 -214 56 -240 5 -11
10 -31 12 -45 2 -14 7 -32 10 -40 3 -8 10 -35 16 -60 5 -25 19 -81 31 -125 12
-44 25 -94 29 -110 4 -17 14 -42 21 -55 7 -14 20 -52 27 -85 8 -33 18 -76 22
-95 5 -19 16 -48 25 -65 9 -16 16 -36 16 -43 0 -7 4 -20 9 -30 6 -9 17 -42 27
-72 16 -53 37 -108 54 -140 4 -9 11 -31 15 -49 4 -18 22 -63 40 -100 18 -37
36 -84 40 -104 4 -20 13 -41 21 -48 8 -6 14 -17 14 -23 0 -6 6 -23 14 -38 8
-15 17 -42 21 -60 4 -18 16 -45 26 -60 11 -14 19 -31 19 -36 0 -6 13 -37 29
-69 16 -32 59 -121 96 -198 36 -77 70 -147 76 -155 5 -8 18 -28 29 -45 11 -16
20 -38 20 -47 0 -10 9 -23 20 -30 11 -7 20 -20 20 -29 0 -9 11 -33 25 -53 14
-20 25 -42 25 -47 0 -6 8 -23 18 -37 10 -15 42 -70 71 -123 29 -53 64 -109 77
-124 14 -16 27 -40 30 -54 4 -14 12 -30 18 -36 12 -11 67 -93 106 -160 13 -22
33 -51 45 -65 12 -14 31 -41 41 -60 10 -19 34 -55 54 -80 42 -53 91 -122 106
-151 7 -12 27 -37 46 -57 35 -38 41 -46 104 -140 19 -29 53 -70 75 -90 21 -20
39 -43 39 -49 0 -7 4 -13 8 -13 5 0 13 -8 18 -19 10 -21 105 -131 147 -170 15
-14 27 -29 27 -33 0 -4 20 -28 45 -54 25 -25 45 -48 45 -51 0 -2 18 -22 40
-43 22 -21 40 -43 40 -49 0 -5 9 -13 20 -16 11 -3 20 -11 20 -18 0 -6 42 -52
93 -102 50 -51 113 -114 138 -141 25 -27 68 -70 95 -96 27 -25 63 -61 80 -80
17 -18 50 -47 75 -65 67 -49 89 -66 122 -96 16 -15 34 -27 38 -27 4 0 16 -13
26 -30 9 -16 22 -30 28 -30 6 0 22 -12 36 -27 14 -16 43 -41 64 -58 22 -16 58
-47 81 -68 23 -20 44 -37 48 -37 6 0 65 -39 76 -50 3 -3 27 -24 55 -45 27 -22
57 -48 67 -58 10 -9 25 -17 33 -17 7 0 18 -6 22 -13 4 -8 29 -26 54 -40 25
-15 55 -37 65 -48 10 -12 51 -42 89 -67 39 -25 110 -72 159 -104 48 -32 93
-58 99 -58 11 0 80 -50 85 -62 2 -4 8 -8 14 -8 5 0 21 -9 35 -20 14 -11 34
-20 44 -20 11 0 19 -5 19 -10 0 -6 10 -15 23 -20 30 -14 86 -48 116 -71 13
-10 32 -19 42 -19 10 0 21 -5 24 -11 7 -10 36 -26 175 -95 41 -20 77 -40 80
-43 5 -7 155 -81 280 -138 41 -19 98 -45 125 -58 28 -13 77 -35 110 -50 33
-14 68 -30 77 -36 10 -5 25 -9 33 -9 8 0 15 -4 15 -10 0 -5 10 -10 23 -10 12
0 31 -7 41 -15 11 -8 32 -15 46 -15 14 0 41 -11 60 -25 19 -14 39 -25 44 -25
18 0 199 -61 240 -81 22 -10 45 -19 52 -19 6 0 51 -14 100 -31 129 -44 211
-68 279 -81 33 -6 80 -20 105 -30 42 -18 117 -38 220 -58 25 -5 60 -12 78 -16
18 -3 35 -10 38 -15 3 -5 20 -9 38 -9 19 0 52 -6 74 -14 23 -8 49 -15 59 -15
43 -2 217 -32 388 -67 17 -3 50 -7 75 -8 25 0 47 -4 50 -8 3 -4 30 -8 60 -9
30 -1 63 -6 73 -11 10 -5 48 -11 85 -13 37 -3 87 -7 112 -10 92 -11 258 -26
340 -31 274 -17 749 -23 970 -11 299 15 409 23 505 37 96 14 118 16 210 24 44
4 96 11 115 16 19 5 64 12 99 15 35 3 68 8 73 11 5 3 28 8 51 10 23 3 65 11
92 18 28 7 90 19 138 26 48 8 90 17 93 22 3 4 23 8 45 8 22 0 48 4 58 10 10 5
52 15 92 21 41 6 79 15 84 19 6 4 24 10 40 13 17 3 48 10 70 17 22 6 65 17 95
25 122 30 143 36 169 49 14 7 48 17 74 20 26 4 63 14 82 22 19 8 37 15 40 15
13 2 99 31 175 59 47 17 99 35 115 40 29 8 119 40 213 75 24 8 65 27 92 40 27
14 60 25 73 25 14 0 30 6 36 14 7 8 27 17 45 20 19 4 39 13 46 21 7 8 18 15
26 15 7 0 44 16 83 35 38 19 79 35 91 35 12 0 34 8 48 18 15 10 70 38 122 63
52 24 113 53 135 65 22 12 107 57 189 99 82 42 167 88 188 101 21 14 64 38 96
55 63 33 74 39 149 86 28 18 54 33 58 33 3 0 30 18 59 40 29 22 56 40 60 40 7
0 62 38 84 58 7 6 17 12 22 12 14 0 100 61 100 71 0 5 8 9 18 9 11 0 32 11 48
25 16 14 34 25 40 25 7 0 14 6 17 14 3 7 38 36 79 62 75 50 207 148 244 181
11 10 31 24 45 31 13 7 44 31 68 52 25 22 48 40 52 40 5 0 16 8 26 19 10 10
54 48 98 84 44 36 91 77 105 91 14 14 30 26 34 26 5 0 23 14 40 30 30 29 167
153 214 195 13 11 83 80 156 153 73 72 138 132 144 132 6 0 19 12 29 28 10 15
51 62 93 106 41 43 89 94 105 113 17 18 55 60 85 92 68 72 123 139 139 168 6
13 17 23 24 24 12 0 56 51 87 100 8 13 30 39 48 57 17 19 32 37 32 40 0 6 115
149 142 175 10 10 18 24 18 32 0 8 11 22 24 30 13 9 31 34 40 56 9 21 20 39
26 39 5 0 25 24 45 53 37 55 79 115 92 132 17 22 50 73 97 151 16 27 42 65 56
84 15 19 39 58 54 85 15 28 33 55 40 60 7 6 24 33 38 60 14 28 58 104 98 170
40 66 91 154 113 195 22 41 45 82 52 90 7 8 18 32 24 52 7 20 22 52 35 70 26
39 112 213 121 247 4 12 18 39 31 58 13 20 24 40 24 45 0 4 23 55 50 112 28
57 50 109 50 115 0 7 11 32 25 57 14 25 25 53 25 63 0 10 6 24 14 30 8 7 18
27 22 44 3 18 17 55 30 82 12 28 26 64 30 80 4 17 13 39 20 49 7 11 20 44 29
75 9 31 21 64 26 73 5 10 19 48 30 85 12 38 27 82 34 98 7 17 27 80 45 140 17
61 36 124 42 140 18 55 40 129 59 205 11 41 24 89 30 105 16 46 29 97 33 130
4 31 8 48 19 75 3 8 8 36 12 62 3 26 10 50 15 53 6 3 9 16 9 28 0 12 7 51 16
87 9 36 20 92 24 125 5 33 14 80 20 105 17 68 45 240 45 280 1 19 5 42 10 49
5 8 10 44 11 80 1 37 5 73 8 81 10 26 47 330 52 440 3 58 8 128 11 155 18 194
24 738 11 1005 -4 74 -9 185 -13 245 -3 61 -9 132 -15 158 -5 27 -7 52 -4 57
3 5 0 44 -5 87 -42 316 -53 391 -71 493 -11 63 -27 156 -34 205 -20 129 -29
176 -60 305 -15 63 -31 131 -35 150 -18 87 -50 207 -100 380 -12 41 -24 86
-27 100 -2 14 -8 34 -12 45 -31 79 -101 296 -101 311 0 8 -4 22 -9 32 -5 9
-20 44 -32 77 -29 79 -40 106 -50 127 -5 10 -9 23 -9 30 0 15 -42 123 -71 183
-10 22 -19 47 -19 56 0 9 -6 22 -14 28 -8 7 -18 27 -22 44 -3 18 -15 48 -24
67 -16 31 -57 126 -74 170 -3 8 -19 38 -35 65 -16 28 -30 56 -30 63 -1 8 -9
26 -19 40 -11 15 -24 42 -31 61 -6 19 -17 42 -24 50 -7 9 -22 36 -32 61 -10
25 -27 54 -37 66 -10 11 -18 25 -18 30 0 11 -28 67 -63 126 -44 73 -107 190
-107 198 0 4 -6 13 -14 19 -8 7 -24 33 -36 59 -12 25 -31 58 -42 72 -10 14
-35 50 -55 80 -20 30 -40 59 -45 65 -19 22 -78 120 -78 130 0 5 -12 21 -25 34
-14 13 -25 28 -25 33 0 6 -10 23 -22 38 -48 59 -58 74 -58 87 0 7 -9 17 -20
23 -11 6 -28 26 -38 44 -24 45 -153 216 -163 216 -5 0 -9 6 -9 13 0 8 -11 24
-25 37 -14 13 -25 27 -25 32 0 5 -12 21 -27 36 -16 15 -39 44 -53 63 -29 41
-87 112 -145 174 -22 24 -60 67 -85 96 -198 226 -586 609 -815 804 -49 42
-101 86 -115 98 -14 11 -52 42 -85 68 -33 27 -71 57 -85 69 -14 11 -43 34 -65
50 -22 16 -47 36 -55 44 -8 7 -31 25 -52 38 -38 26 -119 88 -128 98 -3 4 -20
12 -38 19 -18 8 -38 21 -45 31 -14 19 -244 176 -297 202 -19 10 -51 31 -70 48
-19 16 -39 30 -43 30 -5 0 -21 8 -35 19 -28 19 -69 43 -162 94 -30 16 -59 33
-65 37 -18 14 -88 52 -200 110 -126 65 -154 80 -175 92 -8 4 -22 11 -30 14 -8
3 -23 10 -32 15 -10 5 -26 13 -35 18 -52 28 -230 111 -236 111 -7 0 -57 22
-162 71 -33 15 -72 31 -88 34 -15 4 -30 11 -33 16 -3 5 -12 9 -21 9 -8 0 -31
7 -51 16 -21 8 -50 21 -67 28 -54 24 -109 44 -155 56 -25 7 -61 21 -81 31 -20
11 -46 19 -57 19 -12 0 -24 5 -27 10 -3 6 -15 10 -25 10 -11 0 -34 6 -52 14
-18 8 -62 22 -98 32 -36 10 -69 21 -75 25 -5 4 -30 12 -55 17 -81 20 -164 42
-245 67 -44 13 -99 27 -123 31 -23 4 -45 11 -48 15 -3 5 -20 9 -38 9 -19 0
-46 7 -62 15 -16 8 -38 12 -51 9 -12 -3 -35 0 -50 8 -15 8 -50 15 -77 17 -27
1 -61 7 -75 13 -26 10 -205 46 -271 54 -89 12 -217 33 -240 39 -14 4 -50 9
-80 10 -30 2 -105 10 -165 19 -61 8 -148 16 -195 17 -47 2 -89 5 -95 8 -5 3
-37 6 -70 7 -33 0 -130 4 -215 8 -204 11 -502 13 -670 4z m564 -223 c142 -3
263 -8 269 -12 5 -3 50 -7 101 -9 50 -2 114 -6 141 -9 28 -3 77 -8 110 -10 87
-7 309 -36 318 -42 4 -2 33 -7 65 -9 31 -2 80 -9 107 -15 28 -6 75 -15 105
-19 30 -5 93 -16 140 -26 47 -9 99 -17 115 -18 17 0 32 -4 35 -8 3 -4 21 -10
40 -13 19 -2 53 -9 75 -15 22 -6 51 -13 65 -15 14 -3 52 -11 85 -20 33 -8 69
-17 80 -19 11 -1 36 -8 55 -14 113 -36 203 -62 218 -62 9 0 30 -7 46 -15 15
-8 35 -15 43 -15 8 0 28 -7 44 -16 17 -8 45 -16 62 -16 18 0 43 -9 57 -18 14
-10 45 -21 70 -25 25 -4 65 -18 90 -30 25 -12 59 -26 77 -29 18 -4 50 -16 72
-27 22 -10 45 -19 51 -19 5 0 18 -4 28 -10 9 -5 67 -28 127 -51 61 -23 125
-51 143 -61 18 -10 39 -18 47 -18 8 0 54 -20 103 -44 76 -39 215 -105 322
-155 19 -9 57 -31 84 -48 26 -18 56 -33 66 -33 10 0 32 -11 48 -25 17 -14 35
-25 42 -25 6 0 30 -13 53 -29 24 -16 58 -36 77 -45 57 -27 94 -49 108 -63 7
-7 18 -13 23 -13 5 0 33 -15 62 -34 295 -189 267 -171 376 -248 44 -32 84 -58
89 -58 5 0 25 -14 43 -30 19 -17 54 -43 79 -57 25 -15 61 -40 81 -57 19 -17
46 -38 59 -46 12 -8 48 -36 79 -62 31 -26 61 -48 66 -48 6 0 22 -12 36 -27 42
-45 107 -101 139 -120 17 -9 30 -20 30 -24 0 -4 44 -44 98 -90 53 -45 109 -95
123 -111 15 -15 29 -28 32 -28 3 0 45 -39 94 -86 48 -47 91 -89 95 -92 4 -4
52 -54 107 -112 55 -58 114 -119 130 -137 17 -18 31 -37 31 -42 0 -6 16 -18
35 -27 19 -9 35 -23 35 -31 0 -8 13 -26 28 -41 15 -15 44 -49 62 -75 19 -26
56 -70 82 -96 41 -44 96 -112 146 -180 9 -13 29 -36 45 -53 15 -16 27 -32 27
-36 0 -3 18 -27 40 -53 22 -26 40 -52 40 -56 0 -5 16 -27 35 -49 20 -21 47
-59 62 -84 15 -25 45 -70 67 -100 48 -65 106 -150 106 -156 0 -2 16 -24 35
-50 19 -25 35 -50 35 -55 0 -5 15 -31 33 -57 18 -26 36 -54 40 -62 4 -8 25
-42 47 -75 22 -33 54 -87 71 -120 17 -32 42 -76 54 -95 13 -20 44 -77 70 -126
26 -49 51 -93 56 -99 5 -5 9 -16 9 -25 0 -9 9 -26 20 -38 11 -12 20 -27 20
-34 0 -7 10 -31 21 -53 59 -109 119 -231 119 -242 0 -7 16 -43 35 -80 19 -37
35 -71 35 -75 0 -4 15 -40 34 -80 18 -40 41 -95 51 -121 10 -26 22 -50 26 -53
5 -3 9 -14 9 -26 0 -20 18 -68 46 -120 8 -14 14 -33 14 -43 0 -9 9 -35 20 -57
11 -23 20 -50 20 -59 0 -10 6 -30 14 -46 21 -43 30 -67 76 -213 23 -74 48
-154 56 -177 9 -23 17 -59 20 -79 2 -20 9 -44 14 -54 6 -10 10 -30 10 -45 0
-14 8 -40 17 -58 9 -18 19 -43 21 -57 1 -14 10 -47 18 -74 7 -27 14 -63 14
-78 0 -16 6 -41 14 -56 12 -24 20 -59 31 -129 2 -12 8 -37 13 -55 6 -18 13
-62 17 -98 3 -35 10 -71 15 -80 4 -8 11 -45 14 -81 3 -37 10 -77 15 -90 4 -13
12 -51 15 -84 8 -68 7 -63 35 -240 11 -72 20 -139 19 -150 -1 -25 11 -154 17
-186 3 -13 7 -66 10 -117 2 -51 6 -96 9 -100 5 -8 21 -433 18 -482 0 -14 -1
-52 0 -85 1 -135 -11 -533 -17 -573 -6 -31 -9 -75 -20 -272 -6 -88 -6 -95 -25
-220 -6 -41 -14 -109 -19 -150 -9 -76 -42 -278 -62 -380 -6 -30 -13 -79 -15
-108 -2 -30 -9 -62 -14 -73 -6 -10 -17 -55 -26 -101 -8 -46 -21 -99 -29 -119
-8 -20 -12 -39 -9 -42 3 -3 -1 -30 -10 -60 -9 -30 -16 -66 -16 -80 0 -14 -4
-29 -10 -32 -5 -3 -10 -17 -10 -31 0 -14 -6 -37 -14 -52 -7 -15 -17 -49 -21
-77 -4 -27 -10 -54 -15 -60 -4 -5 -10 -23 -13 -40 -2 -16 -9 -43 -15 -60 -6
-16 -34 -104 -62 -195 -71 -226 -97 -304 -129 -380 -15 -36 -31 -78 -35 -95
-4 -16 -18 -52 -31 -80 -13 -27 -28 -66 -33 -85 -15 -51 -58 -150 -71 -163 -6
-6 -11 -18 -11 -27 0 -8 -7 -28 -15 -44 -8 -15 -15 -33 -15 -40 0 -6 -6 -22
-14 -36 -7 -14 -25 -47 -40 -74 -14 -27 -26 -54 -26 -60 0 -6 -37 -84 -82
-173 -188 -370 -271 -526 -304 -570 -13 -17 -24 -36 -24 -42 0 -6 -4 -11 -10
-11 -5 0 -13 -15 -18 -32 -5 -18 -37 -75 -71 -125 -33 -51 -61 -96 -61 -99 0
-4 -11 -22 -25 -40 -14 -18 -25 -36 -25 -39 0 -4 -15 -25 -34 -48 -18 -23 -37
-52 -40 -64 -4 -13 -11 -23 -16 -23 -9 0 -50 -66 -50 -80 0 -9 -9 -22 -54 -73
-10 -12 -26 -33 -35 -47 -8 -14 -34 -48 -56 -76 -22 -28 -47 -61 -55 -74 -8
-13 -31 -42 -50 -65 -19 -24 -57 -73 -85 -110 -55 -73 -149 -189 -180 -221
-11 -12 -36 -41 -55 -64 -19 -24 -45 -55 -57 -68 -13 -14 -23 -32 -23 -40 0
-11 -3 -13 -10 -6 -6 6 -12 40 -13 75 -2 35 -7 71 -12 79 -5 8 -10 26 -11 40
-2 32 -35 120 -68 184 -33 62 -32 69 4 123 17 24 30 48 30 53 0 5 13 35 29 67
58 114 81 167 81 184 0 10 5 21 10 24 6 3 10 17 10 29 0 13 7 29 15 36 8 7 17
28 20 49 4 20 13 52 20 71 8 19 17 51 21 70 5 19 8 37 9 40 1 3 5 25 9 50 5
25 11 50 15 55 4 6 13 46 19 90 7 44 14 98 18 120 3 22 7 117 9 212 4 179 -16
386 -48 501 -9 28 -13 52 -11 52 2 0 -3 17 -10 38 -8 20 -20 60 -26 89 -7 29
-18 57 -26 64 -8 6 -14 22 -14 35 0 13 -8 38 -18 56 -9 18 -23 50 -31 71 -7
21 -33 71 -57 110 -24 40 -48 81 -53 92 -5 12 -16 27 -25 34 -9 7 -16 19 -16
26 0 6 -9 20 -20 30 -11 10 -20 23 -20 30 0 6 -12 22 -26 36 -14 13 -32 36
-40 52 -8 15 -21 27 -30 27 -8 0 -19 11 -24 25 -5 14 -20 30 -34 36 -13 6 -29
22 -35 35 -6 13 -15 24 -21 24 -6 0 -30 18 -53 39 -69 64 -100 87 -152 116
-28 16 -63 38 -78 51 -15 13 -48 32 -73 43 -24 11 -51 27 -60 36 -8 8 -24 15
-35 15 -10 0 -36 9 -56 20 -21 11 -45 20 -53 20 -9 0 -21 5 -26 10 -6 6 -24
13 -40 16 -16 3 -36 11 -44 19 -8 7 -33 15 -55 18 -22 3 -62 11 -90 16 -138
30 -423 50 -560 39 -11 -1 -33 -1 -49 0 -27 2 -28 3 -14 20 9 9 29 42 46 72
16 30 46 83 65 118 20 34 44 88 53 120 10 31 24 64 31 73 7 8 13 22 13 30 0 8
7 28 16 44 8 17 17 51 19 77 2 26 7 53 11 60 5 7 9 18 10 23 1 6 7 37 13 70
24 121 31 205 31 371 0 72 -4 143 -9 158 -6 14 -8 32 -6 39 3 7 -1 35 -10 62
-8 28 -15 61 -15 76 0 14 -4 29 -9 35 -4 5 -11 23 -14 41 -6 30 -5 31 22 23
16 -4 39 -15 52 -23 53 -33 338 -13 455 32 54 21 83 26 209 36 85 7 131 13
180 21 31 6 47 8 125 19 87 11 210 35 285 54 22 5 56 13 75 16 19 3 62 14 95
24 33 10 78 22 100 26 21 4 51 13 66 21 15 7 44 18 65 23 22 5 57 14 78 20 21
5 42 13 45 18 6 8 40 22 104 44 17 6 55 22 82 34 28 13 68 31 90 40 74 29 95
40 95 47 0 3 24 18 53 32 28 14 68 37 87 51 19 13 51 35 69 47 19 13 54 42 77
64 22 23 49 46 58 51 30 17 126 146 162 219 25 52 38 92 41 136 6 71 6 70 -5
156 -6 48 -5 66 5 74 33 27 46 80 46 181 -1 91 -15 216 -30 257 -4 8 -7 25 -8
36 -1 12 -12 40 -23 63 -12 23 -22 47 -22 54 0 7 -11 35 -25 62 -13 28 -25 55
-25 60 0 6 -15 33 -32 61 -18 28 -42 66 -52 85 -11 19 -25 40 -32 46 -7 7 -33
44 -59 83 -25 38 -56 77 -68 85 -12 8 -18 15 -14 15 10 0 -159 170 -170 171
-4 0 -24 20 -43 44 -19 24 -68 70 -108 102 -95 75 -213 161 -232 170 -8 4 -19
11 -25 15 -22 19 -131 87 -138 88 -5 0 -21 8 -35 19 -36 25 -283 151 -296 151
-6 0 -38 14 -70 30 -32 17 -68 30 -79 30 -11 0 -28 6 -36 13 -9 7 -43 22 -76
32 -33 10 -73 24 -90 31 -16 7 -50 18 -75 24 -25 7 -54 16 -66 20 -11 5 -56
14 -100 20 -43 7 -86 16 -95 21 -33 17 -145 37 -274 49 -127 12 -401 15 -495
7 -36 -3 -108 -15 -160 -27 -52 -11 -113 -24 -135 -29 -22 -4 -50 -13 -63 -20
-12 -6 -26 -10 -31 -7 -4 3 -17 -1 -27 -9 -10 -8 -25 -15 -32 -15 -7 0 -31 -9
-54 -20 l-41 -19 -21 26 c-28 35 -62 90 -81 131 -8 17 -20 32 -25 32 -6 0 -18
16 -27 35 -9 19 -19 32 -23 30 -4 -2 -17 14 -29 36 -13 22 -32 50 -43 62 -10
12 -61 71 -111 131 -126 150 -370 393 -462 461 -14 11 -44 36 -65 55 -51 47
-68 60 -76 60 -4 0 -14 7 -23 15 -16 15 -102 77 -251 180 -41 29 -91 60 -110
70 -19 10 -37 21 -40 24 -3 3 -23 15 -45 26 -22 11 -47 25 -55 31 -8 7 -46 29
-85 49 -38 21 -81 46 -94 56 -13 11 -32 19 -43 19 -19 0 -58 17 -68 29 -9 10
-80 41 -95 41 -8 0 -15 4 -15 9 0 4 -21 16 -47 26 -27 10 -70 29 -97 41 -28
13 -60 24 -72 24 -12 0 -27 7 -34 15 -7 8 -19 15 -27 15 -8 0 -47 13 -86 29
-40 15 -103 38 -142 51 -38 12 -83 28 -100 35 -16 7 -48 17 -70 22 -22 6 -62
16 -90 23 -27 7 -59 16 -70 20 -22 8 -100 26 -160 36 -22 4 -50 13 -62 21 -12
8 -26 12 -32 9 -9 -6 -87 9 -126 25 -11 4 -27 8 -35 8 -46 1 -97 8 -107 14 -6
4 -33 9 -60 12 -26 2 -84 10 -128 16 -44 7 -100 13 -125 15 -25 1 -115 10
-200 19 -273 29 -974 23 -1052 -10 -10 -4 -18 -3 -18 3 0 6 -13 7 -37 1 -21
-4 -83 -11 -138 -14 -55 -4 -107 -9 -115 -12 -8 -3 -25 -5 -37 -4 -11 1 -24
-3 -28 -8 -3 -6 -28 -11 -55 -11 -27 0 -51 -4 -54 -9 -3 -5 -35 -12 -70 -16
-35 -3 -91 -13 -123 -22 -32 -8 -69 -16 -83 -17 -29 -3 -132 -24 -175 -36 -16
-5 -55 -15 -85 -24 -30 -8 -85 -24 -123 -35 -37 -12 -74 -21 -82 -21 -8 0 -29
-6 -47 -14 -18 -8 -69 -26 -113 -40 -44 -13 -97 -32 -119 -41 -21 -9 -40 -14
-43 -11 -3 3 -20 -2 -37 -11 -17 -10 -33 -18 -36 -18 -53 -14 -72 -20 -111
-41 -26 -13 -53 -24 -62 -24 -8 0 -20 -7 -27 -15 -7 -8 -23 -15 -36 -15 -12 0
-25 -4 -28 -9 -3 -5 -29 -16 -58 -26 -29 -9 -60 -23 -68 -30 -8 -8 -19 -14
-25 -14 -21 -2 -45 -13 -45 -20 0 -4 -17 -13 -39 -19 -21 -7 -44 -19 -51 -27
-7 -8 -17 -15 -22 -15 -13 0 -134 -60 -233 -116 -44 -24 -94 -51 -111 -59 -17
-7 -36 -21 -43 -29 -14 -17 -68 -46 -84 -46 -5 0 -29 -16 -53 -35 -23 -19 -45
-35 -49 -35 -4 0 -40 -26 -81 -57 -42 -32 -83 -63 -92 -68 -37 -22 -78 -50
-103 -70 -15 -11 -41 -31 -60 -45 -18 -14 -43 -35 -56 -47 -13 -13 -27 -23
-30 -23 -14 0 -103 -78 -267 -233 -177 -168 -206 -198 -206 -213 0 -8 -6 -14
-13 -14 -7 0 -38 -28 -68 -62 -30 -34 -65 -74 -79 -89 -14 -15 -32 -38 -40
-50 -8 -13 -32 -42 -52 -64 -21 -23 -38 -45 -38 -49 0 -4 -6 -13 -12 -21 -7
-7 -24 -27 -38 -45 -14 -18 -36 -45 -48 -61 -13 -16 -21 -29 -17 -29 4 0 -8
-19 -27 -42 -34 -44 -40 -53 -72 -109 -10 -19 -29 -47 -42 -62 -13 -16 -24
-34 -24 -41 0 -13 -58 -107 -72 -117 -5 -3 -11 -19 -14 -35 -3 -16 -11 -36
-19 -44 -7 -8 -30 -49 -50 -90 -20 -41 -43 -86 -50 -100 -8 -14 -15 -35 -15
-47 0 -12 -4 -24 -9 -28 -14 -8 -41 -65 -41 -86 0 -10 -12 -40 -26 -66 -14
-26 -31 -70 -39 -98 -8 -27 -23 -75 -34 -105 -12 -30 -21 -65 -21 -77 0 -12
-4 -32 -9 -45 -22 -55 -71 -251 -75 -295 -5 -48 -17 -126 -27 -166 l-10 -37
-85 4 c-46 3 -88 7 -92 10 -24 15 -494 -11 -523 -30 -4 -2 -27 -7 -50 -10 -24
-4 -61 -13 -82 -20 -22 -8 -46 -14 -54 -14 -8 0 -43 -12 -79 -26 -35 -14 -75
-27 -88 -28 -14 -1 -31 -7 -38 -13 -7 -6 -31 -17 -53 -24 -22 -7 -79 -33 -126
-56 -47 -24 -91 -43 -97 -43 -7 0 -17 -9 -24 -20 -7 -11 -18 -20 -25 -20 -14
0 -84 -39 -98 -55 -5 -7 -37 -29 -70 -50 -33 -21 -64 -43 -70 -49 -5 -6 -32
-29 -60 -51 -125 -100 -328 -321 -390 -424 -5 -9 -20 -31 -32 -48 -13 -17 -23
-35 -23 -39 0 -4 -8 -17 -18 -28 -10 -12 -25 -37 -32 -56 -8 -19 -24 -52 -37
-72 -13 -21 -23 -43 -23 -51 0 -7 -7 -22 -15 -34 -26 -37 -70 -172 -91 -278
-2 -11 -8 -40 -14 -65 -11 -45 -25 -321 -22 -435 2 -90 21 -154 64 -217 21
-32 41 -66 45 -75 4 -10 13 -22 20 -28 7 -5 14 -27 16 -48 3 -22 15 -49 28
-64 13 -14 50 -52 82 -85 31 -33 57 -64 57 -69 0 -5 6 -9 13 -9 6 0 37 -23 67
-51 60 -56 214 -164 270 -190 19 -9 41 -23 49 -32 7 -10 24 -17 36 -17 12 0
33 -8 46 -19 13 -10 35 -22 49 -26 14 -4 34 -14 45 -21 11 -8 27 -14 36 -14 9
0 22 -7 29 -15 7 -8 22 -15 34 -15 12 0 30 -6 41 -14 11 -7 25 -14 30 -15 40
-5 82 -15 91 -23 7 -5 45 -15 85 -23 41 -8 121 -23 179 -35 83 -16 141 -20
275 -20 94 1 199 5 235 10 36 5 87 12 115 15 27 4 57 11 67 16 9 5 28 9 42 9
14 0 27 4 30 9 3 4 20 11 38 15 41 8 88 28 215 92 l103 51 11 -36 c23 -72 69
-159 111 -212 24 -30 55 -70 70 -89 26 -36 154 -165 237 -238 l44 -39 -24 -17
c-13 -9 -30 -16 -38 -16 -8 0 -22 -6 -30 -13 -9 -7 -56 -37 -106 -67 -49 -30
-117 -77 -149 -104 -99 -85 -258 -249 -294 -305 -9 -14 -34 -44 -54 -66 -21
-22 -38 -45 -38 -51 0 -6 -9 -19 -20 -29 -11 -10 -22 -27 -26 -38 -4 -12 -22
-42 -40 -69 -19 -26 -34 -52 -34 -58 0 -6 -10 -27 -22 -48 -45 -74 -138 -286
-138 -313 0 -11 -4 -19 -9 -19 -5 0 -11 -15 -14 -32 -14 -81 -20 -104 -30
-116 -6 -7 -14 -32 -18 -55 -29 -144 -49 -265 -54 -310 -3 -29 -7 -70 -10 -92
-12 -115 -4 -501 13 -529 2 -4 6 -27 7 -50 5 -81 21 -174 32 -187 6 -8 13 -32
16 -54 10 -77 77 -272 138 -401 10 -22 19 -44 19 -48 0 -4 9 -20 19 -35 30
-41 35 -75 16 -94 -9 -9 -14 -21 -11 -26 3 -5 -5 -12 -19 -15 -19 -5 -32 -21
-51 -64 -13 -31 -32 -68 -40 -82 -8 -14 -22 -41 -30 -60 -8 -19 -27 -62 -43
-95 -16 -33 -36 -79 -46 -102 l-18 -42 -26 17 c-14 9 -31 24 -38 33 -22 29
-85 89 -94 89 -5 0 -9 7 -9 15 0 9 -11 21 -25 27 -14 6 -25 15 -25 19 0 4 -32
40 -72 80 -39 41 -92 99 -117 129 -26 30 -72 82 -103 115 -76 79 -82 87 -104
124 -10 17 -24 31 -31 31 -7 0 -13 4 -13 9 0 8 -97 135 -165 216 -55 66 -95
121 -95 132 0 6 -11 20 -25 31 -14 11 -25 25 -25 31 0 6 -18 31 -40 55 -22 24
-40 47 -40 51 0 5 -11 23 -25 41 -14 18 -25 35 -25 39 0 6 -40 64 -124 183
-19 26 -36 57 -40 68 -4 12 -15 29 -26 39 -11 10 -20 22 -20 26 0 5 -18 35
-40 66 -22 32 -40 63 -40 68 0 6 -16 34 -35 64 -19 29 -38 64 -41 77 -4 14
-15 29 -25 35 -11 5 -19 15 -19 21 0 12 -39 92 -74 153 -13 22 -40 72 -60 110
-21 39 -48 88 -61 110 -12 22 -21 43 -19 47 2 4 0 9 -6 13 -5 3 -10 13 -10 22
0 9 -6 24 -13 32 -8 9 -20 32 -27 51 -7 19 -29 71 -50 115 -21 44 -45 103 -55
130 -9 28 -32 80 -51 117 -18 37 -34 73 -34 80 0 7 -7 27 -16 43 -9 17 -27 59
-41 95 -13 36 -33 83 -43 105 -10 22 -21 61 -25 87 -4 26 -15 54 -26 64 -10 9
-19 30 -19 45 0 15 -4 30 -9 33 -5 3 -11 20 -14 38 -8 49 -38 160 -51 187 -6
13 -11 29 -11 35 -1 18 -16 69 -26 91 -5 11 -18 52 -28 90 -11 39 -27 97 -36
130 -37 134 -66 257 -69 287 -2 15 -7 33 -12 40 -6 7 -11 38 -13 68 -1 30 -7
57 -12 61 -6 3 -14 35 -19 70 -8 57 -17 101 -36 189 -3 14 -6 38 -5 54 0 16
-4 35 -9 41 -5 6 -7 22 -6 37 2 14 -1 48 -6 75 -5 26 -9 59 -8 72 0 13 -6 32
-14 40 -9 10 -12 22 -7 30 5 7 4 29 -1 48 -9 32 -16 109 -21 208 -1 22 -5 45
-8 50 -3 6 -7 48 -8 95 -1 47 -6 89 -11 95 -4 5 -8 71 -8 145 -1 184 -9 367
-17 380 -4 6 -4 23 0 38 5 15 9 122 10 237 2 116 5 255 9 310 3 55 8 151 12
214 3 63 10 125 15 138 5 14 7 28 4 33 -3 4 0 43 6 86 6 44 12 111 15 149 3
66 10 112 34 245 6 30 13 73 15 95 14 120 25 188 33 198 6 7 13 41 17 77 4 36
14 92 22 125 8 33 16 74 18 92 2 17 6 36 9 41 3 6 15 52 25 103 11 52 27 120
35 152 42 152 48 175 57 212 6 22 12 47 14 56 2 8 11 33 20 55 9 21 15 39 15
39 -5 0 14 82 20 90 4 6 17 42 28 80 60 202 76 248 97 287 8 14 15 35 15 45 0
10 4 23 9 28 8 10 33 77 37 104 2 7 7 18 13 24 6 6 11 19 11 30 0 10 8 35 19
55 44 89 51 104 51 118 0 13 16 52 72 168 15 33 28 65 28 72 0 15 32 78 43 82
4 2 7 11 7 20 0 8 9 35 20 59 11 24 29 63 41 87 11 24 26 49 34 56 7 6 16 23
20 38 8 32 55 135 65 142 4 3 23 37 42 75 19 39 46 88 59 110 14 22 35 60 47
85 12 25 28 54 35 64 61 95 87 141 87 153 0 7 5 13 10 13 6 0 10 4 10 10 0 11
61 109 120 193 23 33 47 71 53 85 6 15 14 29 17 32 12 12 60 79 60 85 0 5 39
64 50 75 6 6 24 32 115 165 61 89 116 161 168 219 9 11 17 23 17 26 0 4 10 19
23 33 12 14 29 35 38 47 31 40 76 94 305 365 37 44 83 96 103 115 20 20 72 76
116 125 45 50 105 113 135 140 88 82 110 106 110 121 0 8 4 14 9 14 5 0 22 12
38 28 66 62 143 132 228 207 50 43 97 85 105 92 8 7 29 26 46 41 18 15 56 48
85 74 73 65 148 126 203 167 25 18 46 37 46 42 0 5 6 9 13 9 6 0 42 24 79 53
36 28 94 72 127 96 34 24 61 46 61 50 0 3 21 17 48 31 26 13 51 30 55 37 4 7
27 23 50 34 23 12 68 41 99 65 31 24 60 44 63 44 10 0 143 89 150 101 4 5 15
9 26 9 10 0 28 9 39 20 11 11 36 26 56 35 20 8 49 25 64 39 16 13 49 33 74 45
24 12 50 29 56 37 7 7 16 14 20 14 4 0 39 18 76 40 38 22 75 40 82 40 7 0 28
11 46 25 18 14 38 25 44 25 6 0 40 15 74 34 112 60 193 101 228 115 19 7 71
31 114 53 44 22 91 44 105 49 35 10 154 61 223 93 30 14 60 26 66 26 11 0 36
10 120 46 40 18 149 59 252 95 36 12 74 25 85 29 11 4 54 17 95 30 41 12 91
28 110 35 19 7 69 23 110 34 41 12 97 29 124 38 27 9 76 22 110 29 33 7 88 19
121 28 81 22 76 21 195 49 140 34 257 57 300 61 20 2 45 8 55 13 11 5 42 11
70 12 27 2 54 6 60 9 12 8 3 6 425 57 238 29 535 54 650 56 214 3 238 4 246
12 4 4 15 5 23 2 9 -2 133 -7 275 -10z m-505 -4246 c64 1 121 1 126 1 127 -6
196 -10 220 -14 37 -6 128 -15 215 -21 90 -7 286 -34 340 -47 25 -6 79 -17
120 -24 41 -7 95 -18 120 -24 25 -7 54 -13 65 -15 11 -2 52 -12 90 -24 39 -11
129 -36 200 -56 122 -34 238 -74 277 -96 10 -5 25 -9 34 -9 8 0 39 -9 67 -21
29 -12 61 -25 72 -29 11 -5 40 -17 65 -27 25 -11 72 -30 105 -43 33 -13 129
-59 214 -102 85 -43 159 -78 165 -78 6 0 17 -9 24 -20 7 -11 21 -20 31 -20 11
0 21 -4 23 -10 2 -5 22 -19 44 -32 75 -42 168 -101 209 -132 22 -18 68 -49
103 -71 34 -22 99 -69 143 -105 45 -36 93 -74 108 -85 15 -11 49 -42 77 -70
42 -42 79 -75 139 -124 6 -4 48 -50 95 -101 47 -51 108 -117 135 -146 70 -76
77 -83 107 -131 15 -24 31 -43 36 -43 5 0 17 -18 27 -39 10 -22 23 -42 30 -45
10 -4 27 -28 91 -138 6 -10 21 -29 33 -42 11 -12 21 -29 21 -38 0 -25 53 -75
91 -86 44 -12 140 9 214 45 89 45 229 80 415 103 135 17 357 14 485 -6 55 -9
111 -17 125 -18 23 -2 132 -25 225 -48 22 -5 67 -18 100 -29 33 -11 89 -28
125 -39 152 -44 276 -98 490 -212 159 -84 199 -107 212 -117 28 -24 114 -87
144 -106 64 -40 148 -109 233 -191 47 -46 93 -87 101 -90 8 -3 40 -37 70 -75
30 -39 67 -82 83 -96 15 -15 27 -32 27 -38 0 -7 18 -35 40 -62 22 -28 44 -61
50 -74 6 -13 22 -42 35 -64 14 -22 30 -51 36 -65 6 -14 16 -33 21 -44 5 -10
11 -26 13 -35 1 -9 10 -38 18 -66 27 -90 39 -159 35 -210 l-3 -50 -40 3 c-22
1 -56 6 -75 11 -76 20 -138 31 -200 37 -36 3 -81 8 -100 10 -71 9 -651 4 -668
-5 -10 -5 -43 -11 -73 -11 -61 -2 -149 -15 -259 -37 -41 -8 -88 -16 -105 -18
-16 -2 -50 -10 -75 -18 -25 -8 -64 -18 -88 -22 -24 -4 -56 -13 -70 -21 -15 -8
-33 -14 -41 -14 -33 0 -217 -66 -242 -87 -8 -7 -26 -13 -38 -13 -12 0 -57 -18
-99 -41 -138 -74 -202 -121 -228 -171 -8 -16 -21 -28 -29 -28 -7 0 -24 -15
-36 -32 -13 -18 -37 -46 -54 -63 -60 -58 -153 -189 -154 -217 -1 -9 -7 -21
-15 -25 -7 -4 -21 -28 -29 -53 -9 -25 -23 -62 -31 -82 -9 -21 -16 -53 -16 -73
0 -39 -16 -46 -43 -17 -38 40 -95 98 -113 113 -19 17 -113 120 -175 194 -19
22 -44 48 -56 58 -13 10 -23 23 -23 29 0 5 -10 23 -22 38 -13 15 -30 37 -38
50 -8 12 -32 40 -52 61 -20 22 -40 48 -43 59 -4 11 -10 20 -15 20 -5 0 -12 10
-15 21 -7 21 -103 169 -116 179 -4 3 -10 17 -14 32 -4 15 -13 33 -21 39 -15
12 -54 90 -54 107 0 5 -7 15 -15 22 -8 7 -15 21 -15 31 0 10 -9 24 -20 32 -11
8 -18 16 -15 18 8 8 -16 83 -33 102 -8 9 -12 17 -8 17 4 0 1 10 -5 22 -13 25
-59 238 -59 276 0 36 -36 89 -70 100 -19 7 -36 24 -47 48 -10 21 -34 46 -54
58 -20 12 -56 37 -80 57 -67 54 -163 92 -234 93 -59 1 -145 -20 -197 -49 -14
-8 -33 -15 -42 -15 -27 0 -228 -192 -276 -263 -14 -21 -42 -59 -62 -85 -21
-26 -38 -53 -38 -60 0 -8 -11 -27 -25 -44 -14 -16 -25 -36 -25 -44 0 -39 -120
-227 -193 -302 -64 -66 -75 -72 -135 -76 -46 -3 -62 1 -172 44 -91 36 -115 39
-169 24 -57 -17 -86 -55 -165 -214 -72 -144 -108 -205 -146 -251 -35 -42 -47
-54 -106 -106 -41 -36 -228 -130 -276 -140 -10 -1 -35 -12 -55 -23 -21 -11
-41 -20 -46 -20 -4 0 -28 -9 -53 -21 -25 -11 -80 -27 -122 -35 -43 -9 -88 -18
-102 -20 -25 -5 -40 -7 -140 -20 -68 -8 -66 -8 -225 -1 -166 7 -269 21 -347
47 -34 11 -67 20 -74 20 -22 0 -125 93 -145 132 -11 21 -26 38 -34 38 -8 0
-15 7 -15 16 0 16 -56 44 -90 44 -11 0 -20 -4 -20 -10 0 -5 -8 -10 -17 -10
-18 0 -54 -29 -153 -124 -48 -46 -119 -101 -169 -131 -9 -5 -41 -26 -72 -47
-31 -21 -66 -39 -78 -41 -12 -2 -27 -9 -33 -15 -7 -7 -21 -12 -33 -12 -11 0
-29 -6 -40 -14 -26 -18 -245 -14 -390 7 -95 14 -194 67 -221 119 -7 14 -31 34
-53 45 -28 13 -42 28 -51 53 -7 19 -21 46 -30 60 -10 14 -21 36 -25 50 -4 14
-13 34 -19 45 -7 11 -20 38 -28 60 -9 22 -36 83 -61 135 -24 52 -47 102 -51
110 -3 8 -12 24 -18 34 -7 11 -34 53 -61 94 -54 85 -126 172 -142 172 -6 0
-22 14 -34 31 -13 17 -38 37 -56 45 -19 7 -37 19 -40 24 -9 14 -105 57 -170
77 -145 42 -393 51 -485 16 -8 -4 -28 -8 -45 -10 -40 -5 -73 -17 -185 -70
-109 -52 -106 -50 -186 -98 -81 -49 -151 -115 -225 -215 -40 -55 -149 -293
-149 -327 0 -8 -10 -38 -23 -66 -13 -29 -29 -70 -36 -92 -14 -44 -37 -100 -52
-128 -5 -10 -7 -22 -4 -26 2 -5 -2 -23 -11 -40 -9 -18 -17 -37 -18 -44 -1 -7
-10 -34 -19 -62 -9 -27 -19 -63 -22 -80 -2 -16 -9 -50 -14 -75 -5 -25 -16 -79
-24 -121 -8 -42 -17 -82 -21 -88 -7 -11 -16 -100 -18 -176 0 -22 -4 -47 -9
-55 -36 -74 -21 -1027 19 -1185 6 -22 11 -60 11 -85 0 -25 5 -67 11 -95 6 -27
17 -88 24 -135 12 -81 40 -202 56 -245 5 -11 14 -35 20 -53 7 -18 11 -35 8
-37 -2 -2 -45 0 -96 5 -109 12 -313 15 -362 6 -19 -4 -53 -9 -75 -11 -45 -5
-93 -14 -115 -22 -30 -11 -110 -14 -110 -4 0 5 -10 13 -22 17 -13 3 -46 22
-74 40 -28 19 -55 34 -60 34 -5 0 -45 36 -89 80 -44 44 -86 80 -92 80 -7 0
-13 6 -13 13 0 7 -16 28 -35 47 -19 19 -35 39 -35 45 0 6 -11 22 -24 34 -30
28 -76 139 -76 184 0 17 -9 51 -20 75 -15 34 -17 48 -9 70 13 32 13 234 0 330
-5 37 -9 74 -10 82 -2 58 -36 217 -50 235 -5 5 -12 26 -16 45 -4 19 -13 42
-20 50 -7 8 -16 36 -19 62 -4 26 -12 50 -17 54 -6 3 -14 16 -19 28 -7 19 -120
106 -137 106 -4 0 -18 11 -32 24 -35 33 -123 76 -155 76 -14 0 -34 4 -44 10
-23 13 -129 41 -172 44 -19 2 -62 9 -95 15 -119 22 -494 16 -685 -11 -74 -11
-157 -22 -185 -25 -27 -3 -54 -9 -59 -14 -6 -5 -22 -9 -38 -9 -15 0 -37 -4
-50 -9 -13 -5 -61 -21 -108 -36 -47 -15 -94 -31 -105 -35 -11 -5 -44 -19 -72
-31 -29 -12 -53 -25 -53 -30 0 -5 -3 -8 -7 -8 -5 1 -11 0 -15 -1 -5 -1 -11 -3
-15 -5 -62 -17 -247 -125 -275 -159 -17 -21 -18 -20 -19 24 -3 100 5 252 14
266 3 6 8 23 11 38 18 100 32 148 57 204 16 35 29 69 29 76 0 8 7 19 15 26 8
7 15 22 15 34 1 11 14 37 30 56 17 19 30 40 30 48 0 7 11 28 24 45 13 18 27
42 31 55 3 12 13 22 21 22 8 0 14 5 14 11 0 14 119 157 137 163 7 3 13 12 13
21 0 8 3 15 8 15 4 0 30 21 57 48 104 97 247 212 265 212 5 0 16 7 24 16 27
27 169 104 331 179 64 30 166 65 189 65 9 0 27 5 39 12 12 7 32 11 44 9 11 -1
24 3 28 8 3 6 19 11 35 11 16 0 32 5 35 10 3 6 17 7 30 4 13 -3 30 -2 37 2 40
25 349 38 483 20 213 -28 193 -28 236 1 21 14 39 33 39 42 1 20 34 61 49 61
19 0 51 88 51 138 0 83 93 486 127 547 6 11 14 40 18 65 4 25 11 50 16 56 6 7
22 48 38 93 16 44 33 87 40 94 6 8 18 33 26 58 9 24 27 62 40 85 14 24 25 48
25 54 0 7 9 24 19 38 10 15 19 29 18 32 0 5 30 58 61 105 6 11 17 31 23 45 17
39 21 45 77 125 28 42 52 78 52 81 0 5 61 85 71 94 4 3 18 23 33 45 15 22 40
56 56 75 17 19 48 59 69 88 40 55 260 293 321 346 19 17 69 66 111 109 42 42
80 77 85 77 5 0 30 20 55 43 26 23 73 62 105 87 32 25 81 63 108 85 28 23 75
56 104 75 28 18 52 36 52 40 0 4 29 24 65 44 35 21 70 45 76 52 6 8 15 14 20
14 5 0 28 14 51 30 22 17 47 30 53 30 7 0 19 7 26 17 8 9 30 23 49 31 19 8 47
23 62 33 15 11 93 53 173 93 80 41 151 79 158 84 7 6 16 10 20 10 5 0 23 6 40
15 78 36 129 57 141 57 7 0 21 8 30 19 9 10 31 22 48 25 17 3 55 17 84 31 29
14 61 25 71 25 11 0 28 7 39 15 10 8 27 15 37 15 9 0 25 4 35 9 36 19 125 51
143 51 10 0 20 4 23 9 4 5 29 14 57 20 29 6 66 18 83 25 17 8 45 16 61 19 41
7 199 46 260 64 28 9 61 17 75 18 14 1 43 7 65 14 22 6 52 11 68 11 15 0 27 5
27 10 0 6 22 10 50 10 27 0 69 6 92 14 24 7 52 13 63 14 11 0 40 3 65 7 91 13
176 24 225 29 28 3 70 8 95 11 25 3 90 8 145 11 55 3 163 8 240 13 77 4 149 5
159 3 11 -2 71 -4 135 -3z m3193 -3048 c24 -10 49 -28 56 -40 7 -12 18 -21 25
-21 7 0 20 -9 30 -20 9 -11 31 -23 47 -27 20 -4 32 -13 34 -27 9 -47 27 -133
36 -166 5 -19 14 -56 19 -82 6 -26 26 -80 44 -120 19 -40 49 -104 67 -143 18
-38 41 -82 51 -97 11 -14 19 -30 19 -36 0 -17 40 -96 70 -137 16 -22 29 -47
30 -56 0 -8 13 -28 30 -44 16 -15 32 -41 35 -57 4 -16 13 -32 21 -35 7 -2 35
-39 62 -81 45 -71 95 -138 139 -187 10 -11 38 -47 62 -80 51 -69 333 -353 377
-379 37 -23 71 -84 50 -92 -8 -3 -12 -12 -9 -20 3 -8 0 -14 -6 -14 -13 0 -4
-57 15 -87 8 -12 14 -27 14 -33 0 -6 9 -29 19 -53 26 -56 47 -135 61 -227 13
-84 23 -170 22 -185 -1 -5 -4 -41 -7 -80 -3 -38 -8 -88 -9 -110 -10 -113 -16
-148 -56 -290 -37 -131 -141 -364 -186 -416 -8 -8 -14 -19 -14 -23 0 -11 -51
-76 -86 -111 -17 -17 -35 -40 -38 -50 -4 -11 -31 -40 -60 -65 -29 -25 -70 -72
-92 -105 -25 -39 -54 -68 -81 -83 -23 -12 -56 -36 -73 -52 -18 -17 -38 -30
-46 -30 -8 0 -19 -10 -25 -23 -6 -13 -18 -27 -28 -32 -55 -31 -91 -59 -91 -71
0 -8 -8 -18 -17 -21 -10 -4 -39 -23 -65 -42 -26 -20 -89 -67 -140 -104 -51
-37 -117 -86 -147 -107 -29 -22 -57 -40 -62 -40 -5 0 -9 -7 -9 -15 0 -8 -3
-15 -8 -15 -8 0 -128 -86 -156 -111 -8 -8 -36 -32 -61 -54 -26 -22 -67 -59
-93 -83 -26 -24 -63 -52 -82 -62 -19 -10 -50 -32 -68 -49 -18 -17 -35 -31 -38
-31 -4 0 -78 -55 -138 -104 -21 -17 -71 -62 -110 -99 -39 -37 -98 -85 -131
-107 -33 -21 -71 -50 -85 -64 -14 -14 -29 -26 -34 -26 -9 0 -160 -125 -190
-158 -57 -62 -205 -207 -233 -229 -18 -14 -33 -32 -33 -39 0 -8 -11 -19 -25
-24 -14 -5 -25 -14 -25 -20 0 -15 -40 -71 -67 -92 -12 -10 -25 -29 -28 -41 -4
-12 -27 -56 -51 -98 -24 -42 -44 -83 -44 -93 0 -17 -97 -69 -121 -65 -8 2 -29
-1 -47 -5 -19 -4 -43 -9 -55 -11 -125 -20 -166 -26 -257 -35 -270 -30 -837
-30 -1070 0 -47 6 -107 12 -135 12 -27 0 -81 7 -118 14 -38 8 -86 14 -107 14
-22 0 -49 4 -62 9 -13 5 -75 17 -138 26 -118 17 -187 33 -205 46 -6 4 -36 9
-68 11 -31 1 -57 6 -57 10 0 5 -12 8 -27 8 -26 0 -83 15 -113 30 -9 4 -36 11
-60 15 -25 4 -53 11 -62 16 -10 5 -37 14 -60 18 -24 5 -81 24 -128 41 -47 17
-119 43 -160 57 -41 14 -121 47 -178 74 -57 27 -105 49 -108 49 -3 0 -12 7
-20 15 -9 8 -24 15 -34 15 -10 0 -22 4 -25 10 -3 5 -25 19 -48 30 -69 34 -102
54 -127 78 -13 12 -28 22 -32 22 -9 0 -33 23 -178 180 -57 61 -106 103 -148
127 -35 20 -66 43 -69 52 -3 9 -11 30 -18 46 -7 17 -18 47 -25 68 -6 20 -20
42 -31 47 -10 6 -19 18 -19 26 0 24 -55 137 -74 153 -10 8 -28 36 -42 63 -13
26 -37 63 -54 81 -16 19 -30 38 -30 41 0 6 -44 57 -92 108 -10 10 -23 18 -29
18 -5 0 -8 4 -5 8 3 5 -11 23 -29 41 -19 18 -35 37 -35 42 0 5 -12 14 -26 19
-14 6 -28 18 -31 28 -3 9 -24 32 -47 49 -60 47 -233 163 -243 163 -4 0 -21 7
-38 16 -39 21 -126 50 -205 68 -34 8 -65 17 -68 20 -3 3 -7 20 -9 37 -2 17 -9
45 -17 63 -18 42 -33 85 -41 119 -9 43 -33 190 -33 207 0 8 -5 42 -11 75 -5
33 -15 112 -20 175 -6 63 -16 169 -22 235 -18 199 -26 598 -15 740 3 39 8 99
11 135 3 36 7 80 10 98 2 18 9 69 15 113 6 45 15 91 19 102 4 12 9 41 9 65 1
23 6 50 11 60 9 17 28 85 37 132 6 29 43 155 55 185 4 11 13 38 19 60 7 22 20
58 30 80 9 22 21 55 25 72 3 18 11 35 16 38 5 4 9 16 9 28 0 12 18 58 40 102
22 44 40 83 40 88 0 20 41 94 64 116 14 14 26 30 26 36 0 40 253 197 364 226
180 46 240 59 259 55 12 -3 47 -7 77 -10 64 -6 174 -33 210 -51 85 -44 200
-135 200 -159 0 -7 7 -19 15 -26 31 -26 86 -118 124 -210 6 -14 15 -32 20 -40
4 -8 16 -33 25 -55 10 -22 28 -60 41 -85 12 -25 38 -81 55 -125 18 -44 41 -92
52 -107 10 -14 18 -34 18 -43 0 -18 77 -95 95 -95 5 0 32 -22 60 -48 47 -46
104 -75 235 -122 50 -18 137 -29 275 -35 66 -4 126 -8 133 -10 42 -14 298 61
343 101 8 8 23 14 32 14 9 0 20 6 24 13 4 7 31 26 58 42 28 15 59 38 71 49 11
12 49 41 83 65 34 24 68 53 76 63 13 19 15 18 62 -29 62 -62 130 -103 218
-130 86 -27 240 -55 317 -57 31 -1 59 -3 61 -6 8 -7 262 -4 337 4 36 4 97 14
135 21 39 7 92 16 119 20 53 7 107 26 229 79 21 9 43 16 50 16 12 0 62 23 235
108 41 20 78 44 83 54 5 10 14 18 20 18 30 0 137 104 176 170 14 25 37 56 49
70 13 14 28 36 34 50 6 14 22 43 35 65 14 22 38 70 55 106 l32 66 51 -25 c72
-35 218 -54 285 -37 70 19 131 52 176 96 21 22 41 39 45 39 13 0 127 166 168
243 15 29 35 63 45 76 10 13 18 30 18 38 0 8 13 33 28 56 15 23 32 49 37 58
30 48 70 106 86 124 125 133 146 150 228 181 71 28 90 28 143 5z m3718 -812
c67 -3 245 -30 308 -47 73 -20 92 -41 95 -105 2 -65 -8 -95 -58 -176 -34 -54
-141 -158 -182 -177 -17 -7 -33 -17 -35 -21 -5 -13 -112 -83 -126 -83 -6 0
-12 -3 -12 -8 0 -4 -15 -13 -32 -21 -18 -8 -40 -20 -49 -28 -9 -7 -26 -16 -38
-18 -12 -2 -37 -13 -55 -25 -18 -11 -39 -20 -46 -20 -7 0 -51 -15 -99 -34 -47
-18 -119 -44 -158 -56 -40 -12 -73 -27 -73 -32 0 -5 -10 -8 -22 -7 -26 2 -78
-10 -93 -21 -5 -5 -37 -13 -70 -18 -88 -15 -216 -42 -250 -53 -16 -6 -46 -12
-65 -14 -19 -3 -62 -9 -95 -15 -154 -25 -305 -33 -322 -16 -3 3 -22 -1 -42 -8
-42 -16 -124 -35 -170 -41 -17 -2 -35 -6 -39 -9 -4 -2 -54 -7 -112 -11 -58 -3
-114 -9 -125 -12 -31 -10 -68 -3 -91 18 -11 10 -27 19 -34 19 -17 0 -70 50
-70 66 0 6 7 14 15 18 8 3 15 14 15 23 0 10 6 27 14 38 7 11 15 40 18 65 5 47
49 153 67 165 6 3 11 13 11 22 0 8 14 32 30 53 17 21 30 42 30 46 0 5 34 42
75 83 41 40 75 77 75 82 0 5 5 9 11 9 6 0 23 9 37 21 53 40 103 69 121 69 10
0 25 7 32 16 16 20 110 64 136 64 10 0 31 7 47 15 15 8 34 15 41 15 7 0 18 6
24 14 6 8 26 16 44 19 18 3 61 13 97 22 264 65 335 78 575 103 139 15 413 19
645 11z m-12854 -1571 c5 -4 39 -8 75 -9 35 -1 73 -8 85 -16 11 -7 23 -11 26
-8 2 3 30 -4 61 -15 31 -11 66 -20 77 -20 11 0 20 -3 20 -8 0 -4 17 -16 38
-27 105 -55 182 -150 196 -245 4 -24 10 -49 15 -55 14 -19 35 -239 34 -357 -2
-131 -12 -162 -65 -199 -18 -13 -34 -27 -36 -31 -2 -4 -12 -8 -21 -8 -10 0
-26 -9 -36 -20 -10 -11 -25 -20 -34 -20 -9 0 -34 -9 -55 -19 -21 -11 -52 -23
-69 -27 -18 -3 -38 -11 -45 -17 -12 -10 -68 -24 -127 -31 -75 -10 -121 -19
-130 -27 -14 -10 -326 -2 -395 10 -30 6 -91 16 -135 22 -44 6 -84 15 -89 20
-6 5 -20 9 -32 9 -13 0 -26 5 -29 10 -3 6 -17 10 -29 10 -21 0 -54 11 -121 39
-11 5 -36 15 -55 22 -46 16 -220 107 -241 125 -8 8 -19 14 -23 14 -4 0 -26 16
-49 35 -22 19 -47 35 -55 35 -8 0 -24 10 -36 23 -12 12 -50 45 -84 72 -34 28
-62 52 -62 55 0 3 -30 38 -67 77 -123 129 -142 161 -109 180 7 4 35 27 62 50
79 69 111 93 122 93 6 0 52 20 104 45 51 25 101 45 110 45 9 0 18 5 20 11 2 5
19 14 38 19 34 8 83 24 125 41 11 4 47 13 80 19 33 6 69 15 80 20 21 10 107
28 160 34 139 15 259 27 305 29 100 6 385 2 396 -5z m10867 -1448 c40 -6 106
-15 147 -21 41 -6 89 -17 105 -24 17 -8 49 -19 73 -25 81 -21 322 -137 355
-172 10 -10 24 -18 32 -18 8 0 15 -4 15 -9 0 -5 17 -19 38 -32 20 -12 48 -33
62 -46 14 -12 48 -44 76 -70 74 -69 147 -157 207 -247 17 -28 40 -61 49 -75 9
-14 26 -45 36 -67 11 -23 25 -45 31 -48 6 -4 11 -15 11 -25 0 -16 12 -49 50
-136 5 -11 14 -38 21 -60 6 -22 17 -53 23 -70 6 -16 10 -33 8 -38 -1 -4 5 -24
13 -43 8 -20 15 -53 15 -74 0 -21 6 -72 14 -113 13 -64 21 -212 18 -297 -5
-104 -22 -262 -31 -279 -6 -11 -11 -33 -10 -48 1 -26 -10 -74 -62 -263 -11
-41 -31 -98 -45 -127 -13 -30 -24 -56 -24 -60 0 -11 -151 -312 -159 -318 -5
-2 -21 -29 -36 -59 -15 -31 -38 -65 -51 -77 -13 -13 -24 -26 -24 -31 0 -5 -5
-14 -10 -21 -6 -7 -43 -52 -82 -102 -97 -122 -228 -249 -398 -385 -24 -19 -48
-39 -54 -45 -24 -21 -76 -55 -84 -55 -5 0 -21 -9 -36 -21 -35 -27 -97 -63
-166 -94 -30 -14 -62 -30 -70 -35 -35 -23 -115 -57 -200 -86 -25 -8 -52 -18
-60 -21 -25 -10 -28 -11 -145 -37 -187 -42 -431 -59 -575 -41 -212 26 -213 26
-294 54 -33 12 -67 21 -77 21 -10 0 -20 4 -23 9 -7 11 46 31 81 31 13 0 46 11
73 25 27 14 58 25 69 25 11 0 26 7 35 15 8 8 26 15 39 15 14 0 27 3 29 8 2 4
29 20 61 36 49 24 66 27 100 21 66 -11 83 -9 118 16 19 13 36 27 39 30 3 3 30
22 60 41 83 53 183 156 250 258 33 51 60 97 60 104 0 6 9 29 20 50 45 90 80
285 81 451 0 78 -18 239 -31 270 -4 11 -14 43 -20 70 -7 28 -18 59 -25 70 -7
11 -15 37 -19 58 -4 20 -11 37 -16 37 -6 0 -10 11 -10 24 0 14 -6 31 -13 38
-7 7 -30 48 -51 90 -21 42 -45 79 -52 82 -8 3 -14 13 -14 22 0 10 -22 43 -50
75 -27 32 -50 62 -50 67 0 13 -167 183 -235 239 -96 80 -140 112 -202 148 -35
20 -65 41 -69 46 -3 5 -12 9 -20 9 -8 0 -43 13 -77 29 -148 69 -165 74 -357
121 -51 12 -251 30 -262 23 -4 -2 -36 -5 -70 -7 -85 -5 -171 -17 -183 -26 -5
-4 -21 -4 -35 0 -23 5 -17 11 65 67 95 64 120 84 188 146 23 22 54 46 69 55
14 8 32 26 39 39 7 13 17 23 22 23 10 0 47 27 106 78 21 17 42 32 46 32 8 0
108 81 113 93 2 4 9 7 16 7 7 0 24 10 38 23 13 12 44 38 67 57 23 19 51 43 63
52 11 10 28 20 38 23 10 3 21 12 24 21 3 8 14 18 25 22 10 4 50 35 87 70 184
168 223 199 282 227 17 8 33 20 33 25 1 6 2 14 3 20 1 8 35 43 114 113 30 27
35 29 57 17 16 -8 42 -11 77 -6 29 3 82 8 117 11 36 3 67 8 70 10 8 9 231 5
304 -5z m-8772 -410 c21 -5 57 -15 79 -20 22 -6 85 -15 139 -19 96 -9 154 -22
196 -44 11 -6 47 -25 80 -42 33 -17 74 -39 90 -50 47 -30 175 -139 224 -189
24 -25 47 -46 52 -46 4 0 11 -9 14 -20 4 -12 24 -40 46 -63 21 -23 39 -47 39
-54 0 -6 16 -28 35 -49 19 -20 35 -43 35 -50 0 -7 13 -28 29 -47 16 -18 33
-45 36 -60 4 -15 11 -27 15 -27 5 0 12 -9 15 -21 4 -11 16 -42 28 -67 11 -26
22 -52 23 -59 1 -7 11 -31 22 -55 26 -56 74 -209 68 -215 -3 -3 -42 19 -88 49
-84 56 -262 148 -285 148 -7 0 -21 4 -31 9 -30 16 -123 41 -151 41 -15 0 -31
3 -35 8 -4 4 -33 8 -64 9 -31 1 -70 4 -87 6 -43 7 -276 -17 -302 -31 -12 -7
-35 -12 -50 -12 -16 0 -33 -4 -39 -8 -5 -4 -27 -14 -49 -21 -54 -18 -143 -60
-150 -71 -3 -5 -18 -11 -34 -15 -16 -3 -32 -13 -35 -21 -3 -8 -10 -14 -15 -14
-24 0 -83 -48 -184 -147 -110 -109 -137 -141 -152 -177 -8 -19 -21 -36 -30
-39 -8 -4 -15 -17 -15 -30 0 -14 -7 -30 -15 -37 -18 -15 -40 -58 -67 -130 -11
-30 -25 -60 -29 -66 -18 -23 -65 -220 -75 -314 -9 -91 -12 -306 -4 -345 5 -22
11 -58 14 -80 2 -22 9 -53 15 -68 6 -16 11 -41 11 -56 0 -15 4 -31 9 -37 5 -5
16 -36 26 -69 9 -33 25 -78 35 -100 10 -22 21 -51 25 -65 4 -14 12 -30 17 -37
5 -7 18 -27 27 -45 33 -62 115 -193 145 -233 57 -75 171 -177 251 -225 22 -13
58 -39 79 -57 21 -18 55 -38 75 -44 20 -7 47 -20 61 -30 14 -10 44 -23 67 -29
23 -6 45 -15 48 -20 3 -6 15 -10 26 -10 11 0 30 -6 42 -12 12 -7 51 -17 87
-23 40 -6 65 -15 65 -22 0 -7 -3 -12 -6 -10 -4 1 -15 -5 -25 -14 -21 -17 -157
-79 -175 -79 -6 0 -25 -6 -42 -14 -104 -47 -324 -83 -487 -79 -121 2 -284 26
-340 50 -8 3 -26 8 -40 10 -14 2 -29 8 -34 14 -6 5 -16 9 -23 9 -12 0 -60 20
-173 72 -60 28 -60 28 -111 65 -24 18 -66 47 -92 65 -75 52 -259 237 -325 329
-34 46 -70 95 -80 109 -58 77 -173 307 -207 411 -9 30 -24 70 -33 89 -8 19
-16 49 -18 67 -1 17 -10 55 -20 85 -10 29 -19 62 -21 73 -1 11 -9 60 -17 108
-34 200 -35 474 -4 652 6 33 14 85 19 115 23 155 79 345 133 455 14 28 26 55
26 61 0 6 12 33 27 60 14 27 42 78 61 114 19 36 43 74 53 86 10 11 19 25 19
31 0 6 10 21 23 34 12 13 35 43 51 66 15 23 43 58 62 77 19 19 34 39 34 43 0
5 13 20 28 33 16 14 31 30 33 35 2 6 36 37 74 70 39 33 76 65 82 72 7 6 38 26
68 43 30 17 58 37 62 43 9 14 25 23 140 83 45 23 107 48 138 54 55 11 133 41
149 57 4 4 19 9 34 10 15 1 63 8 107 16 91 16 380 14 446 -3z m7209 -1026
c154 -32 280 -72 306 -95 11 -11 30 -19 41 -19 12 0 28 -6 35 -14 8 -7 30 -21
48 -31 19 -9 49 -30 65 -45 17 -14 52 -39 79 -55 47 -27 276 -246 276 -264 0
-5 19 -33 42 -62 23 -29 53 -74 66 -99 68 -125 89 -170 107 -225 10 -33 24
-66 30 -74 13 -19 9 -250 -6 -299 -6 -20 -13 -52 -15 -70 -3 -18 -13 -50 -24
-70 -11 -20 -20 -42 -20 -49 0 -7 -16 -46 -35 -87 -19 -41 -35 -78 -35 -82 0
-24 -162 -202 -248 -271 -78 -65 -179 -123 -211 -123 -10 0 -26 -9 -35 -19
-10 -11 -32 -23 -50 -26 -17 -4 -56 -21 -86 -38 -58 -33 -150 -62 -235 -73
-27 -3 -53 -8 -57 -10 -6 -4 -63 -11 -168 -20 -80 -6 -268 -5 -336 2 -32 4
-68 7 -79 8 -11 2 -36 5 -55 9 -19 4 -57 9 -85 12 -72 7 -132 20 -168 38 -18
8 -79 29 -137 47 -58 18 -109 36 -115 40 -9 7 -138 77 -197 107 -33 17 -123
98 -188 167 -48 52 -62 66 -104 105 -14 13 -26 33 -26 46 0 12 -6 40 -14 61
-13 37 -33 237 -28 279 7 66 24 252 24 265 0 13 4 41 23 139 2 13 12 32 21 42
9 10 13 22 10 27 -11 18 17 85 50 118 19 19 34 40 34 48 0 7 11 22 25 34 14
12 25 26 25 31 0 5 15 19 33 30 17 11 60 49 94 83 35 35 118 118 184 186 67
67 129 122 137 122 7 0 27 14 42 30 15 17 37 30 48 30 12 0 36 9 55 20 83 49
256 86 442 95 82 4 229 16 233 20 7 6 113 -6 182 -21z m-6716 -125 c68 2 255
-30 309 -53 20 -8 43 -26 52 -40 12 -18 26 -26 46 -26 15 0 31 -4 34 -10 3 -5
17 -10 30 -10 13 0 27 -4 30 -10 3 -5 15 -10 26 -10 10 0 19 -5 19 -10 0 -6
11 -15 25 -20 14 -5 28 -17 31 -25 4 -8 15 -15 25 -15 10 0 19 -4 19 -9 0 -5
30 -31 67 -57 104 -74 212 -171 268 -240 17 -21 40 -48 53 -61 12 -13 22 -28
22 -33 0 -5 10 -17 23 -27 13 -10 26 -26 30 -35 6 -16 67 -51 92 -53 19 -1
105 -77 105 -91 0 -8 3 -14 8 -14 4 0 18 -23 31 -50 14 -28 29 -50 33 -50 4 0
8 -5 8 -12 0 -11 27 -75 54 -129 8 -15 11 -38 9 -53 -3 -14 0 -33 7 -41 7 -8
8 -20 3 -27 -4 -7 -9 -22 -10 -33 -17 -181 -63 -335 -100 -335 -7 0 -13 -8
-13 -18 0 -35 -252 -311 -328 -360 -15 -9 -35 -27 -45 -39 -10 -13 -22 -23
-27 -23 -11 0 -79 -44 -101 -65 -9 -8 -19 -15 -24 -15 -4 0 -28 -15 -54 -33
-25 -18 -66 -42 -91 -54 -25 -11 -63 -29 -85 -39 -25 -12 -65 -19 -105 -20
-36 -1 -86 -6 -112 -12 -78 -18 -415 -2 -475 23 -20 8 -45 15 -57 15 -30 0
-134 34 -148 48 -7 7 -19 12 -28 12 -8 0 -31 9 -50 20 -19 11 -57 31 -85 45
-86 42 -188 118 -222 165 -18 25 -37 50 -41 55 -20 27 -73 137 -68 142 3 3 -6
22 -19 42 -14 19 -25 39 -25 44 0 4 -11 24 -24 45 -28 45 -72 170 -81 234 -3
26 -10 50 -14 52 -9 6 -15 126 -14 282 1 111 19 235 42 289 5 11 14 40 21 65
14 51 51 133 63 138 4 2 7 9 7 14 0 12 131 211 141 216 4 2 37 32 73 67 37 36
73 65 80 65 7 0 21 9 31 20 20 23 122 80 141 80 7 0 14 4 16 10 3 9 43 22 163
52 22 6 54 10 70 9 17 0 37 3 45 8 8 6 18 7 24 4 5 -3 36 -5 70 -4z m1064
-206 c33 -32 72 -65 86 -73 13 -8 57 -37 98 -64 81 -55 170 -106 238 -137 25
-11 54 -25 65 -31 11 -6 31 -17 45 -24 14 -6 44 -21 66 -33 23 -12 50 -21 61
-21 10 0 23 -4 29 -9 9 -10 59 -28 224 -86 116 -40 135 -45 157 -45 11 0 34
-7 49 -15 16 -8 54 -19 84 -26 30 -6 80 -19 110 -29 30 -11 78 -21 105 -24 28
-2 61 -9 75 -15 25 -10 167 -39 230 -47 19 -3 71 -11 115 -19 44 -7 118 -19
165 -25 47 -6 101 -16 120 -21 19 -5 80 -11 135 -15 55 -3 127 -8 160 -10 71
-4 395 -18 445 -18 45 0 444 16 490 20 63 5 135 16 150 21 8 4 18 6 22 5 26
-5 190 24 222 39 22 10 41 19 43 19 2 0 1 -35 -2 -77 -13 -158 -4 -270 33
-388 5 -17 6 -39 2 -50 -15 -40 13 -161 51 -225 5 -8 19 -33 30 -55 36 -72
142 -205 163 -205 6 0 32 -20 56 -45 24 -25 50 -45 57 -45 7 0 13 -4 13 -8 0
-4 14 -17 31 -27 17 -11 43 -28 58 -38 37 -25 269 -137 278 -135 5 1 17 -3 28
-8 11 -6 35 -14 53 -18 19 -3 48 -12 65 -19 60 -26 260 -65 372 -72 22 -2 67
-8 100 -13 58 -10 148 -10 327 1 l87 6 20 -42 c23 -45 110 -107 150 -107 12 0
40 -9 62 -21 23 -11 43 -18 46 -15 3 3 21 -1 41 -9 19 -9 49 -17 67 -19 18 -2
42 -9 53 -15 11 -6 22 -7 26 -4 3 4 16 1 29 -5 22 -11 58 -18 132 -27 64 -8
368 -15 385 -9 8 3 46 8 84 10 38 3 73 7 79 11 5 3 30 8 54 10 25 2 70 12 101
22 31 11 75 22 97 26 22 3 49 10 60 15 11 5 54 19 95 31 41 13 79 29 83 36 4
7 17 13 28 13 17 0 34 7 79 31 36 20 137 67 158 74 12 3 30 15 40 25 9 10 31
26 49 36 17 11 55 33 85 50 29 18 60 39 67 48 7 9 19 16 27 16 7 0 17 6 21 14
4 7 37 38 73 67 149 123 300 274 390 390 14 17 35 43 46 57 l21 26 15 -29 c9
-17 21 -76 28 -133 13 -104 8 -175 -12 -200 -6 -7 -13 -25 -14 -40 -11 -102
-10 -101 -70 -165 -33 -34 -73 -73 -90 -87 -16 -14 -52 -50 -79 -80 -26 -30
-56 -59 -66 -65 -35 -20 -148 -128 -143 -136 3 -5 -2 -9 -10 -9 -8 0 -20 -9
-26 -20 -6 -11 -16 -20 -21 -20 -6 0 -20 -11 -31 -25 -11 -14 -25 -25 -31 -25
-7 0 -18 -9 -24 -19 -7 -11 -45 -44 -85 -74 -40 -30 -86 -68 -103 -85 -16 -17
-33 -32 -36 -32 -4 0 -20 -11 -35 -24 -25 -21 -105 -87 -141 -116 -7 -6 -24
-15 -38 -22 -14 -6 -25 -15 -25 -19 0 -5 -27 -26 -59 -48 -32 -22 -66 -47 -74
-56 -9 -8 -19 -15 -22 -15 -4 0 -25 -15 -47 -34 -22 -19 -55 -42 -73 -50 -18
-9 -35 -20 -37 -25 -2 -5 -30 -26 -62 -47 -32 -22 -69 -46 -81 -54 -118 -81
-138 -93 -180 -113 -16 -8 -36 -21 -44 -30 -7 -10 -17 -17 -21 -17 -4 0 -37
-18 -71 -40 -35 -22 -95 -58 -134 -79 -38 -22 -90 -52 -115 -67 -40 -25 -136
-76 -300 -159 -30 -16 -75 -39 -100 -52 -25 -13 -61 -31 -80 -39 -19 -9 -48
-23 -65 -32 -75 -38 -142 -70 -165 -77 -24 -7 -53 -20 -165 -70 -144 -66 -174
-78 -220 -92 -27 -8 -63 -22 -79 -30 -15 -8 -53 -21 -84 -29 -31 -8 -64 -21
-73 -29 -8 -9 -47 -24 -85 -34 -38 -11 -82 -24 -99 -30 -61 -22 -242 -79 -305
-96 -36 -10 -84 -24 -108 -31 -23 -8 -51 -14 -60 -14 -10 0 -22 -4 -27 -9 -10
-8 -107 -31 -155 -35 -14 -2 -42 -10 -63 -19 -21 -9 -41 -16 -45 -15 -8 1 -26
-3 -144 -33 -85 -22 -197 -40 -242 -40 -16 0 -38 -5 -49 -11 -20 -10 -153 -33
-277 -48 -36 -4 -99 -12 -140 -18 -150 -22 -240 -33 -322 -38 -46 -2 -110 -7
-143 -9 -378 -29 -822 -33 -1155 -9 -47 3 -126 7 -176 9 -50 2 -108 8 -130 13
-21 6 -62 11 -91 11 -28 1 -73 6 -100 11 -26 6 -70 12 -98 15 -56 5 -68 7
-215 30 -58 9 -117 18 -132 19 -15 1 -33 7 -40 14 -6 6 -36 12 -64 12 -29 0
-56 5 -59 10 -3 6 -17 7 -30 4 -12 -3 -26 -1 -29 5 -4 6 -22 11 -41 11 -19 0
-37 5 -40 10 -3 6 -17 8 -30 6 -13 -2 -42 2 -66 11 -47 16 -145 43 -169 48
-27 4 -74 16 -140 35 -36 11 -99 29 -140 41 -41 11 -88 25 -105 29 -53 16
-249 81 -270 90 -57 26 -100 40 -120 40 -12 0 -28 6 -34 14 -7 8 -35 20 -64
27 -29 6 -61 18 -72 24 -11 7 -32 16 -48 19 -26 6 -86 31 -183 77 -22 10 -45
19 -50 19 -5 0 -25 8 -44 19 -19 10 -46 22 -60 26 -13 4 -30 14 -38 21 -7 8
-23 14 -35 14 -12 0 -38 11 -57 24 -19 13 -49 26 -67 30 -17 4 -37 14 -44 22
-6 8 -18 14 -27 14 -8 0 -37 14 -64 30 -26 17 -55 30 -63 30 -7 0 -17 5 -21
11 -3 6 -34 24 -68 41 -33 16 -92 47 -131 68 -38 21 -88 48 -110 59 -22 11
-69 38 -105 60 -36 23 -76 46 -90 53 -14 7 -52 31 -85 53 -63 42 -66 44 -104
75 -13 11 -32 20 -43 20 -10 0 -18 4 -18 10 0 5 -19 19 -42 31 -24 12 -47 28
-51 35 -4 8 -12 14 -18 14 -12 0 -110 67 -129 89 -9 10 -27 24 -40 31 -32 16
-83 55 -276 207 -86 68 -157 123 -159 123 -2 0 -17 12 -32 28 -16 15 -54 47
-83 72 -30 25 -71 61 -92 80 -20 19 -48 43 -62 53 -15 10 -26 24 -26 31 0 19
39 104 50 111 6 3 10 14 10 24 0 10 7 24 15 31 8 7 15 21 15 31 0 10 18 56 39
101 22 46 42 90 45 98 3 8 10 22 16 30 5 8 15 29 21 45 l11 30 16 -32 c18 -33
28 -45 149 -179 40 -45 73 -86 73 -92 0 -6 9 -13 19 -17 11 -3 37 -23 58 -43
52 -50 153 -132 163 -132 5 0 23 -13 41 -30 40 -36 306 -170 339 -170 9 0 20
-3 24 -7 14 -15 164 -58 231 -67 17 -2 64 -9 105 -16 142 -22 409 -9 520 25
25 8 63 17 85 20 57 9 171 54 315 125 127 63 280 155 280 170 0 4 13 13 29 19
15 7 37 25 49 40 16 22 29 28 61 29 22 1 44 3 48 4 5 1 25 -4 45 -11 38 -13
37 -13 153 39 11 5 43 16 70 25 28 9 64 22 80 29 17 8 46 21 65 29 19 8 55 35
80 59 25 24 67 59 93 78 57 42 236 183 257 203 37 36 159 168 194 211 37 46
67 94 101 166 10 19 22 41 28 48 17 21 56 147 73 237 18 93 21 265 4 275 -6 4
-8 14 -5 22 4 9 -1 30 -9 47 -9 17 -16 34 -16 38 0 15 -23 78 -41 113 -11 19
-19 40 -19 46 0 18 -68 114 -111 158 -22 22 -39 43 -39 48 0 5 -11 20 -24 33
-13 13 -30 32 -38 42 -7 10 -31 30 -54 46 -22 15 -89 77 -148 138 -60 60 -126
122 -148 136 -30 21 -38 31 -34 47 3 12 6 27 6 34 0 27 39 9 98 -45z"/>
<path d="M12707 9595 c-70 -26 -94 -51 -112 -113 -9 -31 -21 -64 -25 -73 -20
-39 9 -174 51 -239 5 -8 12 -22 15 -32 10 -28 116 -78 165 -78 49 0 116 27
140 56 56 68 87 168 69 229 -4 17 -13 53 -20 80 -7 33 -21 60 -41 78 -16 16
-36 39 -45 52 -10 15 -33 28 -62 35 -79 19 -96 20 -135 5z"/>
<path d="M8373 9445 c-56 -26 -113 -76 -113 -100 0 -8 -3 -15 -8 -15 -4 0 -18
-24 -31 -52 -20 -44 -25 -71 -26 -152 -2 -89 1 -104 26 -155 38 -79 83 -112
162 -118 59 -4 65 -2 117 35 45 31 62 52 92 113 21 41 38 84 38 96 0 12 3 24
8 26 4 3 7 40 6 84 -1 88 -32 178 -65 188 -10 4 -19 13 -19 20 0 17 -36 38
-51 30 -5 -4 -21 0 -34 9 -32 21 -40 20 -102 -9z"/>
<path d="M11025 8453 c-90 -4 -279 -24 -320 -34 -22 -6 -74 -14 -115 -19 -96
-11 -176 -27 -192 -37 -7 -4 -20 -8 -28 -10 -8 -1 -16 -7 -18 -13 -2 -6 -14
-30 -27 -53 -25 -48 -30 -123 -10 -147 7 -8 16 -26 20 -40 4 -14 23 -49 41
-78 19 -29 34 -56 34 -61 0 -5 16 -32 35 -60 19 -28 35 -54 35 -57 0 -4 7 -14
15 -23 8 -9 37 -44 65 -78 28 -35 64 -70 81 -79 18 -9 47 -32 67 -51 l35 -35
3 -142 c5 -222 4 -340 -4 -450 l-2 -29 -80 7 c-85 7 -230 51 -302 91 -24 13
-56 31 -73 38 -16 8 -39 24 -50 37 -47 52 -105 57 -147 11 -38 -42 -41 -98 -6
-139 38 -45 137 -114 198 -137 8 -3 30 -14 49 -25 55 -34 306 -109 319 -95 3
2 13 0 22 -5 26 -14 250 -21 317 -10 79 13 279 78 293 96 7 8 18 14 24 14 15
0 121 81 148 113 23 26 50 85 49 107 -1 8 -1 32 -1 53 1 27 -4 39 -17 43 -10
3 -25 9 -34 14 -8 4 -27 6 -42 3 -16 -3 -27 -1 -27 6 0 23 -19 9 -84 -57 -67
-70 -163 -128 -236 -143 -19 -4 -48 -10 -65 -14 l-30 -6 0 148 c0 81 -2 217
-5 302 l-5 154 70 43 c39 23 77 48 85 56 8 7 26 18 40 24 14 6 40 26 57 45 18
19 53 55 78 81 25 26 45 51 45 56 0 5 18 28 40 53 22 24 42 52 46 62 3 9 9 17
13 17 5 0 21 39 35 86 27 85 28 111 7 181 -11 39 -69 113 -88 113 -7 0 -13 4
-13 8 0 9 -107 47 -162 57 -42 8 -112 11 -183 8z"/>
</g>
</svg>
